<svg id="Layer_1" data-name="Layer 1" xmlns="http://www.w3.org/2000/svg" viewBox="0 0 38 38"><defs><style>.cls-1{fill:#fff;}.cls-2{fill:none;}.cls-3{fill:#4285f4;}.cls-3,.cls-4,.cls-5,.cls-6{fill-rule:evenodd;}.cls-4{fill:#34a853;}.cls-5{fill:#fbbc05;}.cls-6{fill:#ea4335;}</style></defs><g id="Google-Button"><g id="btn_google_dark_normal" data-name="btn google dark normal"><g id="button-bg-copy"><rect id="path-3" class="cls-1" width="38" height="38" rx="1"/><rect id="path-3-2" data-name="path-3" class="cls-2" width="38" height="38" rx="1"/><rect id="path-3-3" data-name="path-3" class="cls-2" width="38" height="38" rx="1"/><rect id="path-3-4" data-name="path-3" class="cls-2" width="38" height="38" rx="1"/></g><g id="logo_googleg_48dp" data-name="logo googleg 48dp"><path id="Shape" class="cls-3" d="M31.64,23.2a11,11,0,0,0-.16-1.84H23v3.48h4.84a4.11,4.11,0,0,1-1.79,2.72v2.26H29a8.78,8.78,0,0,0,2.68-6.62Z" transform="translate(-4 -4)"/><path id="Shape-2" data-name="Shape" class="cls-4" d="M23,32a8.62,8.62,0,0,0,6-2.18l-2.91-2.26a5.43,5.43,0,0,1-3.05.86,5.37,5.37,0,0,1-5-3.71H15V27a9,9,0,0,0,8,5Z" transform="translate(-4 -4)"/><path id="Shape-3" data-name="Shape" class="cls-5" d="M18,24.71a5.36,5.36,0,0,1,0-3.42V19H15A9,9,0,0,0,15,27l3-2.33Z" transform="translate(-4 -4)"/><path id="Shape-4" data-name="Shape" class="cls-6" d="M23,17.58a4.83,4.83,0,0,1,3.44,1.35L29,16.34A8.65,8.65,0,0,0,23,14a9,9,0,0,0-8,5l3,2.33a5.37,5.37,0,0,1,5-3.71Z" transform="translate(-4 -4)"/><path id="Shape-5" data-name="Shape" class="cls-2" d="M14,14H32V32H14Z" transform="translate(-4 -4)"/></g></g></g></svg>