<?xml version="1.0" encoding="UTF-8"?><svg id="a" xmlns="http://www.w3.org/2000/svg" viewBox="0 0 30 30"><defs><style>.c{fill:#67686f;}</style></defs><g id="b" transform="translate(-0.73 -3.717)"><path class="c" d="M15.02,25.58c-.27,0-.54-.1-.75-.31l-4.22-4.22c-.41-.41-.41-1.08,0-1.49s1.08-.41,1.49,0l3.48,3.48,3.48-3.48c.41-.41,1.08-.41,1.49,0s.41,1.08,0,1.49l-4.22,4.22c-.21,.21-.48,.31-.75,.31Z"/><path class="c" d="M15.02,25.58c-.58,0-1.06-.47-1.06-1.06V15.01c0-.58,.47-1.06,1.06-1.06s1.06,.47,1.06,1.06v9.51c0,.58-.47,1.06-1.06,1.06Z"/><path class="c" d="M25.46,22.5c-.36,0-.72-.19-.91-.52-.29-.5-.12-1.15,.38-1.44,1.61-.94,2.35-2.9,1.75-4.67-.72-1.81-2.6-3.02-4.58-2.97h-1.51c-.46,0-.86-.29-1-.73-1.02-3.14-3.81-5.33-7.11-5.57-3.38-.41-6.67,1.16-8.45,3.99-1.57,3.04-1.12,6.75,1.2,9.38,.39,.44,.34,1.11-.1,1.49-.44,.39-1.11,.34-1.49-.1C.76,18.08,.19,13.44,2.2,9.56c2.25-3.61,6.35-5.56,10.48-5.05,3.85,.28,7.18,2.72,8.64,6.29h.75c2.86-.08,5.52,1.66,6.59,4.35,.93,2.76-.2,5.78-2.67,7.22-.17,.1-.35,.14-.53,.14Z"/></g></svg>