<?xml version="1.0" encoding="UTF-8"?><svg id="a" xmlns="http://www.w3.org/2000/svg" viewBox="0 0 30 30"><defs><style>.b{fill:#67686f;}</style></defs><path class="b" d="M11.87,17.4c4.36,0,7.91-3.55,7.91-7.91S16.23,1.57,11.87,1.57,3.95,5.12,3.95,9.48s3.55,7.91,7.91,7.91Zm0-13.88c3.29,0,5.97,2.68,5.97,5.97s-2.68,5.97-5.97,5.97-5.97-2.68-5.97-5.97,2.68-5.97,5.97-5.97Z"/><path class="b" d="M17.24,19.38H6.64c-2.49,0-4.52,2.03-4.52,4.52s2.03,4.52,4.52,4.52h10.6c2.49,0,4.52-2.03,4.52-4.52s-2.03-4.52-4.52-4.52Zm0,7.1H6.64c-1.42,0-2.58-1.16-2.58-2.58s1.16-2.58,2.58-2.58h10.6c1.42,0,2.58,1.16,2.58,2.58s-1.16,2.58-2.58,2.58Z"/><path class="b" d="M23.61,9.48c0,1.88-1.41,3.43-3.23,3.64-.29,.69-.66,1.34-1.1,1.93,.21,.03,.44,.04,.65,.04,3.1,0,5.62-2.52,5.62-5.62s-2.52-5.62-5.62-5.62c-.21,0-.44,0-.65,.05,.45,.59,.81,1.23,1.1,1.92,1.82,.21,3.23,1.77,3.23,3.64Z"/><path class="b" d="M25.13,19.39h-4.29c.71,.49,1.28,1.16,1.63,1.94h2.66c.45,0,.81,.55,.81,1s-.36,.99-.81,.99h-2.24c.02,.12,.02,.24,.02,.37,0,.55-.1,1.08-.27,1.57h2.5c1.52,0,2.75-1.43,2.75-2.93s-1.23-2.94-2.75-2.94Z"/></svg>