<?xml version="1.0" encoding="UTF-8"?><svg id="a" xmlns="http://www.w3.org/2000/svg" viewBox="0 0 30 30"><defs><style>.c{fill:#67686f;}</style></defs><path id="b" class="c" d="M9.24,3.05L7.44,.91,1.01,6.3l1.8,2.14L9.24,3.05Zm19.76,3.26L22.56,.91l-1.8,2.14,6.44,5.4,1.8-2.14ZM15,3.9c-6.95,0-12.59,5.64-12.59,12.59s5.64,12.59,12.59,12.59,12.59-5.64,12.59-12.59h0c0-6.95-5.64-12.59-12.59-12.59Zm0,22.39c-5.41,0-9.79-4.39-9.79-9.79,0-5.41,4.39-9.79,9.79-9.79s9.79,4.39,9.79,9.79h0c0,5.41-4.39,9.79-9.79,9.79Zm-4.2-12.59h5.08l-5.08,5.88v2.52h8.4v-2.8h-5.08l5.08-5.88v-2.52H10.8v2.8Z"/></svg>