<?xml version="1.0" encoding="UTF-8"?><svg id="a" xmlns="http://www.w3.org/2000/svg" viewBox="0 0 30 30"><defs><style>.c{fill:#67686f;}</style></defs><g id="b"><g><path class="c" d="M27.59,3.04c-.35,.85-.69,1.69-1.04,2.54-.97,2.34-1.93,4.68-2.9,7.02-.81,1.96-1.62,3.92-2.43,5.88-.8,1.92-1.59,3.85-2.39,5.77-.41,1-.82,1.99-1.23,2.99-.09,.21-.23,.33-.46,.36-.24,.02-.43-.08-.55-.28-.58-.94-1.17-1.88-1.76-2.82-.72-1.15-1.44-2.31-2.16-3.46-.11-.18-.22-.36-.33-.53-.27-.43-.24-.92,.1-1.3,.64-.72,1.27-1.44,1.91-2.15,.81-.92,1.63-1.83,2.44-2.75,.93-1.05,1.86-2.09,2.79-3.14,1.03-1.16,2.06-2.32,3.08-3.48,.29-.32,.58-.64,.86-.97,.06-.07,.11-.17,.15-.26,.01-.03,0-.09-.02-.11-.03-.02-.09-.03-.12-.02-.08,.04-.17,.08-.24,.14-.95,.82-1.9,1.64-2.85,2.46-1.05,.9-2.09,1.8-3.14,2.71-1.01,.87-2.02,1.74-3.03,2.61-1.26,1.09-2.52,2.18-3.79,3.27-.38,.33-.83,.37-1.27,.12-2.02-1.14-4.05-2.29-6.07-3.43-.15-.08-.3-.16-.45-.25-.2-.12-.3-.3-.28-.53,.01-.22,.13-.38,.33-.47,1.5-.66,3.01-1.31,4.51-1.97,1.73-.75,3.46-1.51,5.19-2.26,1.7-.74,3.4-1.48,5.1-2.22,2.35-1.03,4.71-2.05,7.06-3.08,.71-.31,1.42-.62,2.14-.93,.08-.03,.16-.06,.23-.08h.11c.1,.05,.21,.08,.3,.14,.12,.08,.17,.21,.2,.35v.14Z"/><path class="c" d="M27.59,2.9c-.04-.14-.08-.27-.2-.35-.09-.06-.2-.09-.3-.14h.5v.49Z"/></g></g></svg>