<?xml version="1.0" encoding="UTF-8"?><svg id="a" xmlns="http://www.w3.org/2000/svg" viewBox="0 0 30 30"><defs><style>.e{fill:#67686f;}</style></defs><g id="b" transform="translate(-3.125 -3.125)"><path id="c" class="e" d="M21.98,10.63l-1.15-1.25c-.05-.05-.11-.08-.18-.08h0c-.07,0-.14,.03-.18,.08l-7.99,8.51-2.91-3.07c-.09-.1-.24-.11-.34-.02l-.02,.02-1.17,1.23c-.1,.11-.1,.28,0,.39l3.66,3.88c.19,.23,.47,.37,.77,.39,.29-.03,.56-.16,.76-.38h0l8.75-9.3c.1-.12,.1-.29,0-.4Z"/><path id="d" class="e" d="M15,2.89c6.68,0,12.1,5.43,12.1,12.11,0,6.68-5.43,12.1-12.11,12.1-6.68,0-12.1-5.43-12.1-12.11,0-3.21,1.28-6.28,3.55-8.55,2.27-2.28,5.35-3.55,8.56-3.54m0-1.88C7.27,1.01,1.01,7.27,1.01,15s6.26,13.99,13.99,13.99,13.99-6.26,13.99-13.99c0-7.73-6.26-13.99-13.99-13.99h0Z"/></g></svg>