<?xml version="1.0" encoding="UTF-8"?><svg id="a" xmlns="http://www.w3.org/2000/svg" viewBox="0 0 30 30"><defs><style>.e{fill:#67686f;}</style></defs><g id="b" transform="translate(0)"><path id="c" class="e" d="M6.05,5.67l1.72,21.18c0,1.18,.95,2.13,2.13,2.14h10.28c1.18,0,2.13-.95,2.14-2.13h0l1.7-21.19H6.05Zm4.49,19.31l-.49-16.98h1.35l.5,16.98h-1.36Zm5.12,0h-1.32V8h1.31V24.98Zm3.82,0h-1.36l.49-16.98h1.35l-.49,16.98Z"/><path id="d" class="e" d="M22.87,3.05h-2.62l-1.92-1.68c-.27-.23-.6-.36-.96-.37h-4.72c-.36,0-.7,.13-.98,.36l-1.92,1.68h-2.62c-1.28,0-2.19,.61-2.19,1.89H25.06c0-1.28-.91-1.89-2.19-1.89Z"/></g></svg>