<?xml version="1.0" encoding="UTF-8"?><svg id="a" xmlns="http://www.w3.org/2000/svg" viewBox="0 0 30 30"><defs><style>.c{fill:#67686f;}</style></defs><g id="b"><path class="c" d="M12.46,1.01c5.36,.02,9.94,3.77,10.86,8.93,.58,3.24-.1,6.23-2.18,8.85-.16,.2-.17,.32,.02,.51,2.25,2.25,4.49,4.51,6.74,6.77,.52,.52,.66,1.13,.43,1.81-.23,.68-.74,1.05-1.45,1.11-.53,.05-.98-.16-1.36-.54-2.29-2.29-4.58-4.58-6.86-6.87-.24-.24-.39-.27-.69-.09-1.94,1.14-4.04,1.63-6.28,1.46-5.07-.4-9.01-4.15-9.9-8.78-.69-3.59,.18-6.8,2.63-9.52,1.79-1.99,4.04-3.16,6.7-3.51,.14-.02,.28-.04,.42-.05,.34-.02,.68-.04,.92-.06ZM4.97,11.96c0,4.2,3.4,7.61,7.6,7.61,4.16,0,7.6-3.41,7.59-7.55-.02-4.45-3.67-7.58-7.57-7.59-3.99-.01-7.61,3.19-7.61,7.54Z"/></g></svg>