<?xml version="1.0" encoding="UTF-8"?><svg id="a" xmlns="http://www.w3.org/2000/svg" viewBox="0 0 30 30"><defs><style>.c{fill:#67686f;}</style></defs><path id="b" class="c" d="M26.37,25.49H3.63c-1.45,0-2.62-1.17-2.62-2.62V7.13c0-1.45,1.17-2.62,2.62-2.62H26.37c1.45,0,2.62,1.17,2.62,2.62v15.74c0,1.45-1.18,2.62-2.62,2.62ZM7.13,7.57c-1.69,0-3.06,1.37-3.06,3.06s1.37,3.06,3.06,3.06c1.69,0,3.06-1.37,3.06-3.06h0c0-1.69-1.37-3.06-3.06-3.06Zm-2.62,14.42H25.49v-6.12l-4.78-4.78c-.25-.26-.66-.26-.91-.01h-.01l-7.41,7.42-3.03-3.04c-.25-.26-.66-.26-.91-.01h-.01l-3.91,3.92v2.62Z"/></svg>