<?xml version="1.0" encoding="UTF-8"?><svg id="a" xmlns="http://www.w3.org/2000/svg" viewBox="0 0 30 30"><defs><style>.e{fill:#67686f;}</style></defs><g id="b" transform="translate(-2.25 -4.5)"><path id="c" class="e" d="M28.99,7.34c0-1.05-.59-1.81-1.42-1.81H11.43c-.15,.01-.3-.06-.38-.19l-1.39-1.77v-.02c-.25-.36-.66-.56-1.09-.54H2.56c-.93,.08-1.62,.89-1.54,1.81v5.81c0,.13,.11,.12,.19,.06,.13-.07,.28-.11,.43-.11H28.37c.15,0,.3,.04,.43,.11,.08,.06,.19,.07,.19-.06v-3.29Z"/><path id="d" class="e" d="M1.01,25.23c.06,1.03,.94,1.82,1.97,1.76H26.99c1.04,.05,1.93-.74,2-1.79V13.37c-.03-.52-.48-.92-1-.89H2.01c-.52-.03-.97,.37-1,.89v11.86Z"/></g></svg>