<?xml version="1.0" encoding="UTF-8"?><svg id="a" xmlns="http://www.w3.org/2000/svg" viewBox="0 0 30 30"><defs><style>.c{fill:#67686f;}</style></defs><path id="b" class="c" d="M2.76,26.37c0,1.45,1.17,2.62,2.62,2.62H24.62c1.45,0,2.62-1.17,2.62-2.62V11.5H2.76v14.87Zm3.5-10.49c0-.48,.39-.87,.87-.87h5.25c.48,0,.87,.39,.87,.87v5.25c0,.48-.39,.87-.87,.87H7.13c-.48,0-.87-.39-.87-.87v-5.25ZM24.62,4.51h-2.62V1.88c0-.48-.39-.87-.87-.87h-1.75c-.48,0-.87,.39-.87,.87v2.62h-7V1.88c0-.48-.39-.87-.87-.87h-1.75c-.48,0-.87,.39-.87,.87v2.62h-2.62c-1.45,0-2.62,1.17-2.62,2.62v2.62H27.24v-2.62c0-1.45-1.17-2.62-2.62-2.62h0Z"/></svg>