<?xml version="1.0" encoding="UTF-8"?><svg id="a" xmlns="http://www.w3.org/2000/svg" viewBox="0 0 30 30"><defs><style>.c{fill:#67686f;}</style></defs><g id="b"><path class="c" d="M2.49,23.23c.09-.43,.15-.87,.27-1.29,.24-.81,.7-1.5,1.3-2.1,3.83-3.83,7.65-7.66,11.49-11.48,1.83-1.83,4.77-1.33,5.81,1,.59,1.33,.39,2.61-.53,3.75-.08,.1-.18,.2-.27,.29-2.83,2.83-5.65,5.66-8.48,8.48-.29,.29-.6,.46-1.02,.34-.63-.19-.88-.92-.48-1.45,.07-.1,.16-.19,.25-.27,2.8-2.8,5.59-5.59,8.39-8.39,.65-.65,.78-1.42,.37-2.14-.48-.86-1.67-1.12-2.45-.53-.1,.07-.19,.16-.28,.24-3.84,3.83-7.67,7.67-11.5,11.5-1.18,1.18-1.31,2.92-.35,4.23,1.1,1.5,3.27,1.75,4.69,.53,.11-.09,.21-.19,.31-.29,4.72-4.72,9.43-9.44,14.15-14.15,.96-.96,1.48-2.09,1.51-3.45,.05-1.91-1.24-3.84-3.06-4.48-1.97-.69-3.71-.28-5.18,1.19-3.74,3.73-7.47,7.47-11.2,11.2-.31,.31-.64,.5-1.09,.35-.61-.21-.83-.94-.43-1.45,.08-.1,.17-.18,.25-.27,3.68-3.69,7.37-7.36,11.05-11.06,1.16-1.16,2.5-1.91,4.14-2.1,.04,0,.08-.03,.12-.05h1.27s.1,.04,.15,.05c.76,.08,1.49,.29,2.17,.65,2.39,1.27,3.63,3.28,3.66,5.98,.02,1.82-.7,3.39-1.99,4.68-4.76,4.76-9.52,9.52-14.28,14.28-1.2,1.2-2.66,1.73-4.34,1.48-2-.29-3.37-1.42-4.08-3.31-.17-.45-.22-.94-.33-1.41v-.58Z"/></g></svg>