<?xml version="1.0" encoding="UTF-8"?><svg id="a" xmlns="http://www.w3.org/2000/svg" viewBox="0 0 30 30"><defs><style>.c{fill:#67686f;}</style></defs><g id="b"><path class="c" d="M.37,14.98c.28-.21,.58-.39,.84-.62,3.68-3.3,7.36-6.62,11.04-9.92,.07-.07,.16-.12,.34-.26v5.9c1.53,.24,2.98,.36,4.37,.7,3.23,.79,5.85,2.6,7.97,5.13,2.42,2.88,3.9,6.23,4.7,9.92-.12-.17-.24-.33-.35-.5-2.51-4.11-6.21-6.28-10.98-6.68-1.85-.16-3.71-.24-5.64-.36v7.17c-.42-.35-.71-.58-.99-.81-3.6-3.02-7.19-6.03-10.79-9.05-.15-.12-.34-.2-.51-.29,0-.1,0-.2,0-.31Z"/></g></svg>