<?xml version="1.0" encoding="UTF-8"?><svg id="a" xmlns="http://www.w3.org/2000/svg" viewBox="0 0 30 30"><defs><style>.c{fill:#67686f;}</style></defs><g id="b" transform="translate(-2.25 -3.75)"><path class="c" d="M25.51,27.55H4.49c-1.85,0-3.36-1.51-3.36-3.36V5.8c0-1.85,1.5-3.36,3.36-3.36h6.57c.24,0,.47,.12,.61,.32l2.41,3.62h11.43c1.85,0,3.36,1.51,3.36,3.36v14.45c0,1.85-1.51,3.36-3.36,3.36ZM4.49,3.91c-1.05,0-1.9,.85-1.9,1.9V24.2c0,1.05,.85,1.9,1.9,1.9H25.51c1.05,0,1.9-.85,1.9-1.9V9.75c0-1.05-.85-1.9-1.9-1.9H13.69c-.24,0-.47-.12-.61-.32l-2.41-3.62H4.49Z"/><path class="c" d="M20.91,18.36H9.09c-.4,0-.73-.33-.73-.73s.33-.73,.73-.73h11.82c.4,0,.73,.33,.73,.73s-.33,.73-.73,.73Z"/></g></svg>