<?xml version="1.0" encoding="UTF-8"?><svg id="a" xmlns="http://www.w3.org/2000/svg" viewBox="0 0 30 30"><defs><style>.c{fill:#67686f;}</style></defs><path id="b" class="c" d="M16.75,8.44V1.01H5.82c-.72,0-1.31,.58-1.31,1.31h0V27.68c0,.72,.58,1.31,1.31,1.31H24.18c.72,0,1.31-.58,1.31-1.31h0V9.75h-7.43c-.72,0-1.31-.59-1.31-1.31Zm3.5,12.9c0,.36-.29,.66-.66,.66H10.41c-.36,0-.66-.29-.66-.66h0v-.44c0-.36,.29-.66,.66-.66h9.18c.36,0,.66,.29,.66,.66h0v.44Zm0-3.5c0,.36-.29,.66-.66,.66H10.41c-.36,0-.66-.29-.66-.66h0v-.44c0-.36,.29-.66,.66-.66h9.18c.36,0,.66,.29,.66,.66v.44Zm0-3.93v.44c0,.36-.29,.66-.66,.66H10.41c-.36,0-.66-.29-.66-.66h0v-.44c0-.36,.29-.66,.66-.66h9.18c.36,0,.66,.29,.66,.66Zm5.25-6.24v.33h-7V1.01h.33c.35,0,.68,.14,.93,.38l5.35,5.36c.25,.24,.38,.58,.39,.92Z"/></svg>