<?xml version="1.0" encoding="UTF-8"?><svg id="a" xmlns="http://www.w3.org/2000/svg" viewBox="0 0 27.98 27.99"><defs><style>.c{fill:#67686f;}</style></defs><g id="b" transform="translate(-2.4 -2.4)"><path class="c" d="M13.99,27.99C6.28,27.99,0,21.71,0,13.99S6.27,0,13.98,0h0c7.71,0,13.99,6.27,13.99,13.98h0c0,7.72-6.28,14-13.99,14Zm0-25.87h0c-6.55,0-11.87,5.33-11.87,11.88s5.33,11.88,11.88,11.88,11.88-5.33,11.88-11.88h0c0-6.55-5.33-11.88-11.88-11.88Z"/><path class="c" d="M19.16,17.64c-.16,0-.32-.04-.47-.11l-5.17-2.59c-.36-.18-.58-.55-.58-.94V6.23c0-.58,.47-1.06,1.06-1.06s1.06,.47,1.06,1.06v7.11l4.59,2.3c.52,.26,.73,.9,.47,1.42-.19,.37-.56,.58-.95,.58Z"/></g></svg>