<?xml version="1.0" encoding="UTF-8"?><svg id="a" xmlns="http://www.w3.org/2000/svg" viewBox="0 0 30 30"><defs><style>.b{fill:#67686f;}</style></defs><path class="b" d="M28.97,11.86C27.16,4.2,20.01-.52,12.34,.87,7.45,1.76,3.46,5.05,1.66,9.68-.18,14.4,.57,19.65,3.66,23.73c.38,.5,.35,.65,.17,.99-.29,.54-.51,1.09-.77,1.72-.12,.28-.24,.58-.38,.9l-.89,2.04,2.1-.74c.36-.13,.71-.23,1.04-.34,.77-.24,1.5-.46,2.17-.85,.35-.2,.48-.22,1.01,.07,3.41,1.85,7,2.28,10.66,1.26,7.35-2.04,11.93-9.63,10.21-16.91Zm-10.73,15.04c-3.16,.88-6.26,.51-9.22-1.1-.46-.25-.95-.45-1.51-.45-.42,0-.88,.11-1.39,.41-.25,.14-.52,.26-.83,.37,.08-.18,.16-.35,.25-.51,.73-1.39,.16-2.42-.34-3.07-2.68-3.53-3.33-8.08-1.74-12.17,1.55-3.99,5-6.84,9.22-7.6,6.64-1.21,12.83,2.89,14.4,9.52,1.48,6.29-2.48,12.83-8.84,14.6Z"/><path class="b" d="M9.11,13.32h-.05c-1.06,.02-1.54,.67-1.66,1.65,.13,1.04,.7,1.61,1.73,1.63h.04c.91,0,1.7-.8,1.61-1.68-.1-.97-.63-1.61-1.66-1.61Z"/><path class="b" d="M22.24,13.33s-.07,0-.11,0c-.99,0-1.51,.62-1.63,1.57-.11,.91,.67,1.69,1.65,1.72,.95-.07,1.63-.52,1.66-1.6,.03-1.04-.52-1.65-1.57-1.7Z"/><path class="b" d="M15.66,13.33s-.05,0-.07,0c-1.04,.03-1.6,.62-1.59,1.67,0,1.08,.67,1.53,1.66,1.63,1.02-.11,1.64-.64,1.6-1.69-.04-1-.59-1.6-1.6-1.6Z"/></svg>