<?xml version="1.0" encoding="UTF-8"?><svg id="a" xmlns="http://www.w3.org/2000/svg" viewBox="0 0 30 30"><defs><style>.b{fill:#67686f;}</style></defs><path class="b" d="M27.55,17.74l-.12-.08c-.33-.24-.64-.46-.84-.7-.57-.68-.81-1.52-.7-2.37,.12-.89,.61-1.67,1.37-2.2,1.68-1.17,1.99-2.52,.98-4.27l-.13-.22c-.21-.37-.43-.74-.66-1.09-.6-.91-1.48-1.41-2.46-1.37-.51-.02-1.07,.11-1.7,.41-.65,.31-1.35,.41-1.97,.3-1.46-.35-2.46-1.62-2.44-3.09,.02-1.48-1.15-2.62-2.73-2.67-.38,0-.77-.01-1.14-.01-.38,0-.77,0-1.15,.01-1.57,.04-2.74,1.19-2.73,2.67,.02,1.47-.99,2.74-2.39,3.08-.67,.12-1.37,.02-2.02-.29-.62-.3-1.18-.43-1.7-.41-.97-.04-1.86,.46-2.46,1.37-.23,.36-.45,.72-.66,1.09l-.13,.22c-1.01,1.75-.7,3.11,.98,4.27,.77,.53,1.25,1.31,1.37,2.2,.12,.85-.13,1.7-.7,2.37-.2,.24-.51,.47-.84,.7l-.12,.08c-1.05,.76-1.28,1.65-1.29,2.27,0,.5,.13,1.01,.41,1.5,.36,.65,.7,1.2,1.03,1.68,.64,.95,1.43,1.24,1.99,1.32,.6,.12,1.24,.04,1.89-.25,.95-.42,1.87-.53,2.61-.32,1.14,.38,1.86,1.5,2.02,3.15,.14,1.4,1.27,2.47,2.68,2.53,.29,.01,.58,.02,.86,.02h.67c.29,0,.58,0,.86-.02,1.41-.06,2.54-1.12,2.69-2.53,.17-1.65,.89-2.77,1.98-3.14,.78-.22,1.7-.11,2.65,.31,.65,.29,1.28,.37,1.89,.25,.57-.07,1.35-.37,1.99-1.32,.33-.49,.67-1.04,1.03-1.68,.27-.49,.41-1,.39-1.52h0c-.03-.88-.48-1.67-1.27-2.24Zm-.82,2.82c-.34,.6-.64,1.1-.94,1.55-.3,.44-.56,.47-.64,.48l-.11,.02c-.25,.06-.54-.03-.73-.12-1.37-.61-2.74-.74-4.01-.39-1.88,.63-3.1,2.38-3.34,4.8-.05,.45-.38,.76-.84,.78-.37,.02-.73,.02-1.11,.01-.37,0-.73,0-1.1-.01-.45-.02-.79-.33-.84-.78-.25-2.42-1.46-4.17-3.39-4.82-1.22-.34-2.59-.2-3.96,.4-.19,.09-.48,.18-.73,.12l-.11-.02c-.09,0-.35-.04-.64-.48-.3-.44-.61-.95-.94-1.55-.11-.19-.16-.37-.16-.52,0-.25,.17-.49,.48-.72l.11-.08c.39-.28,.84-.6,1.2-1.03,.92-1.1,1.32-2.48,1.13-3.88-.19-1.41-.99-2.7-2.19-3.53-.86-.6-.91-.82-.4-1.7l.13-.23c.19-.34,.39-.67,.6-1,.16-.24,.41-.51,.77-.49h.13c.2-.01,.46,.06,.8,.22,1.02,.48,2.12,.64,3.25,.43,2.34-.57,3.96-2.62,3.93-5,0-.5,.45-.69,.83-.7,.36,0,.73-.01,1.1,0,.36,0,.72,0,1.09,0,.39,.01,.84,.2,.83,.7-.03,2.38,1.59,4.44,3.99,5.02,1.07,.19,2.18,.04,3.19-.45,.34-.16,.6-.23,.8-.22h.13c.36-.02,.62,.26,.77,.49,.21,.32,.41,.66,.6,1l.13,.23c.51,.88,.46,1.11-.4,1.7-1.2,.83-2,2.12-2.19,3.53-.19,1.4,.21,2.78,1.13,3.88,.36,.43,.81,.75,1.2,1.03l.11,.08c.2,.15,.45,.39,.46,.73,0,.16-.04,.33-.14,.51Z"/><path class="b" d="M14.99,8.79c-3.31,.05-6.05,2.79-6.11,6.11-.06,3.43,2.62,6.17,6.14,6.25,3.48-.07,6.16-2.82,6.1-6.25-.06-3.31-2.8-6.05-6.14-6.11Zm.04,10.41c-2.4-.05-4.24-1.93-4.2-4.27,.04-2.28,1.92-4.16,4.16-4.2,2.27,.04,4.16,1.92,4.2,4.2,.04,2.34-1.8,4.22-4.16,4.27Z"/></svg>