<?xml version="1.0" encoding="UTF-8"?><svg id="a" xmlns="http://www.w3.org/2000/svg" viewBox="0 0 30 30"><defs><style>.b{fill:#67686f;}</style></defs><path class="b" d="M10.11,.91H4.41C2.48,.91,.91,2.48,.91,4.41v5.7c0,1.93,1.57,3.5,3.5,3.5h5.7c1.93,0,3.5-1.57,3.5-3.5V4.41c0-1.93-1.57-3.5-3.5-3.5Zm1.56,9.2c0,.86-.7,1.56-1.56,1.56H4.41c-.86,0-1.56-.7-1.56-1.56V4.41c0-.86,.7-1.56,1.56-1.56h5.7c.86,0,1.56,.7,1.56,1.56v5.7Z"/><path class="b" d="M25.59,.91h-5.7c-1.93,0-3.5,1.57-3.5,3.5v5.7c0,1.93,1.57,3.5,3.5,3.5h5.7c1.93,0,3.5-1.57,3.5-3.5V4.41c0-1.93-1.57-3.5-3.5-3.5Zm1.56,9.2c0,.86-.7,1.56-1.56,1.56h-5.7c-.86,0-1.56-.7-1.56-1.56V4.41c0-.86,.7-1.56,1.56-1.56h5.7c.86,0,1.56,.7,1.56,1.56v5.7Z"/><path class="b" d="M10.11,16.38H4.41c-1.93,0-3.5,1.57-3.5,3.5v5.7c0,1.93,1.57,3.5,3.5,3.5h5.7c1.93,0,3.5-1.57,3.5-3.5v-5.7c0-1.93-1.57-3.5-3.5-3.5Zm1.56,9.2c0,.86-.7,1.56-1.56,1.56H4.41c-.86,0-1.56-.7-1.56-1.56v-5.7c0-.86,.7-1.56,1.56-1.56h5.7c.86,0,1.56,.7,1.56,1.56v5.7Z"/><path class="b" d="M25.59,16.38h-5.7c-1.93,0-3.5,1.57-3.5,3.5v5.7c0,1.93,1.57,3.5,3.5,3.5h5.7c1.93,0,3.5-1.57,3.5-3.5v-5.7c0-1.93-1.57-3.5-3.5-3.5Zm1.56,9.2c0,.86-.7,1.56-1.56,1.56h-5.7c-.86,0-1.56-.7-1.56-1.56v-5.7c0-.86,.7-1.56,1.56-1.56h5.7c.86,0,1.56,.7,1.56,1.56v5.7Z"/></svg>