<?xml version="1.0" encoding="UTF-8"?><svg id="a" xmlns="http://www.w3.org/2000/svg" viewBox="0 0 30 30"><defs><style>.c{fill:#67686f;}</style></defs><g id="b" transform="translate(0 0)"><path class="c" d="M28.61,11.95C26.99,4.59,19.82-.15,12.42,1.25,7.69,2.09,3.75,5.35,2.03,9.83,.24,14.41,.98,19.6,3.97,23.5c.37,.48,.34,.63,.17,.96-.28,.53-.51,1.06-.76,1.67-.11,.27-.23,.56-.37,.87l-.86,1.99,2.04-.72c.35-.13,.68-.22,1-.33,.73-.2,1.44-.47,2.11-.83,.34-.2,.46-.21,.98,.07,3.15,1.78,6.89,2.22,10.37,1.22,7.16-1.98,11.52-9.21,9.94-16.46Zm-17.71,3.06c0,.86-.7,1.56-1.56,1.56h-.11c-.88,0-1.61-.71-1.62-1.59,.11-.96,.58-1.59,1.62-1.61h.16c.85,.01,1.52,.72,1.5,1.57v.08Zm4.76,1.57c-.96-.1-1.62-.53-1.62-1.59-.01-.1-.01-.2,0-.29,.06-.79,.76-1.39,1.55-1.33h.07c.08,0,.16,0,.24,0,.79,.06,1.38,.76,1.31,1.55,.04,1.03-.56,1.54-1.55,1.65Zm7.93-1.55c-.03,1.05-.7,1.47-1.62,1.55-.04,0-.08,0-.12,0-.87-.05-1.54-.8-1.49-1.67v-.09c.04-.84,.75-1.48,1.58-1.44h.11c.1,0,.19,0,.29,.01,.8,.11,1.36,.84,1.24,1.64Z"/></g></svg>