<?xml version="1.0" encoding="UTF-8"?><svg id="a" xmlns="http://www.w3.org/2000/svg" viewBox="0 0 30 30"><defs><style>.b{fill:#67686f;}</style></defs><path class="b" d="M17.54,27.72c-.19,0-.39-.04-.57-.13l-5.09-2.54c-.43-.22-.7-.66-.7-1.14v-7.84L1.31,4.37c-.32-.38-.39-.91-.18-1.36,.21-.45,.66-.74,1.15-.74H27.72c.5,0,.95,.29,1.15,.74,.21,.45,.14,.98-.18,1.36l-9.88,11.69v10.39c0,.44-.23,.85-.6,1.08-.21,.13-.44,.19-.67,.19Zm-3.82-4.6l2.54,1.27V15.59c0-.3,.11-.59,.3-.82L24.98,4.82H5.02L13.43,14.77c.19,.23,.3,.52,.3,.82v7.52Z"/></svg>