<?xml version="1.0" encoding="UTF-8"?><svg id="a" xmlns="http://www.w3.org/2000/svg" viewBox="0 0 30 30"><defs><style>.b{fill:#67686f;}</style></defs><path class="b" d="M26.58,2.78h-3.41V.74h-1.94V2.78H8.87V.74h-1.94V2.78H3.42C1.73,2.78,.35,4.16,.35,5.85V26.19c0,1.69,1.38,3.07,3.07,3.07H26.58c1.69,0,3.07-1.38,3.07-3.07V5.85c0-1.69-1.38-3.07-3.07-3.07ZM3.42,4.73h3.51v2.06h1.94v-2.06h12.37v2.06h1.94v-2.06h3.41c.62,0,1.13,.51,1.13,1.13v2.72H2.29v-2.72c0-.62,.51-1.13,1.13-1.13ZM26.58,27.31H3.42c-.62,0-1.13-.51-1.13-1.13V10.52H27.71v15.67c0,.62-.51,1.13-1.13,1.13Z"/></svg>