<?xml version="1.0" encoding="UTF-8"?><svg id="a" xmlns="http://www.w3.org/2000/svg" viewBox="0 0 30 30"><defs><style>.c{fill:#67686f;}</style></defs><path id="b" class="c" d="M28.13,3.74h0V26.26H1.85V3.74H28.13Zm0-.85H2.88c-1.03,0-1.87,.84-1.87,1.88V25.23c0,1.04,.84,1.87,1.88,1.88H28.13c1.03,0,.85-.84,.85-1.88V4.77c0-1.03,.19-1.88-.85-1.88h0Zm-3.75,5.54c0,1.55-1.26,2.82-2.82,2.82-1.55,0-2.82-1.26-2.82-2.82s1.26-2.82,2.82-2.82,2.82,1.26,2.82,2.82h0Zm1.88,15.95H3.73v-3.75l6.57-11.26,7.51,9.38h1.88l6.57-5.63v11.26Z"/></svg>