<?xml version="1.0" encoding="utf-8"?>
<!-- Generator: Adobe Illustrator 26.1.0, SVG Export Plug-In . SVG Version: 6.00 Build 0)  -->
<svg version="1.1" id="Layer_1" xmlns="http://www.w3.org/2000/svg" xmlns:xlink="http://www.w3.org/1999/xlink" x="0px" y="0px"
	 viewBox="0 0 362.49 219.79" style="enable-background:new 0 0 362.49 219.79;" xml:space="preserve">
<style type="text/css">
	.st0{fill:none;stroke:#5F6060;stroke-width:5;stroke-miterlimit:10;}
	.st1{fill:none;stroke:#5F6060;stroke-miterlimit:10;}
	.st2{fill:#5F6060;}
	.st3{fill:url(#SVGID_1_);}
	.st4{fill:#636464;}
	.st5{fill:url(#SVGID_00000069360408136593163100000018398312329190973078_);}
	.st6{fill:url(#SVGID_00000092444820592319644700000015010115383480029837_);}
	.st7{fill:url(#SVGID_00000053544128529683273090000008431716621920103853_);}
	.st8{fill:none;stroke:#66BAE8;stroke-width:6;stroke-miterlimit:10;}
	.st9{fill:url(#SVGID_00000068667399394910572590000005568192988017979286_);}
	.st10{fill:url(#SVGID_00000008120550986603250280000004240716288576640148_);}
	.st11{fill:url(#SVGID_00000062908237850048402790000016629759644049679522_);}
</style>
<path class="st4" d="M68.45,98.14c0-6.99-5.69-12.68-12.68-12.68s-12.68,5.69-12.68,12.68c0,7.54,5.95,11.42,12.69,12.63
	c0.07,0.01,0.14,0.02,0.21,0.04c8.11,1.38,16.15,3.26,22.22,9.22c6.08,5.98,9.57,14.28,9.57,22.81c0,17.65-14.36,32.01-32.01,32.01
	c-17.65,0-32.01-14.36-32.01-32.01h7.34c0,13.6,11.07,24.67,24.67,24.67c13.6,0,24.67-11.07,24.67-24.67c0-3.13-0.6-6.25-1.76-9.16
	c-1.94-4.84-5.43-9-9.85-11.76c-4.77-2.98-9.39-3.06-14.71-3.95c-10.11-1.69-18.37-9.13-18.37-19.82c0-11.04,8.98-20.02,20.02-20.02
	c11.04,0,20.02,8.98,20.02,20.02H68.45z"/>
<path class="st4" d="M237.28,154.81h-7.34v-28.34c0-13.6-11.07-24.67-24.67-24.67c-13.6,0-24.67,11.07-24.67,24.67v28.34h-7.34
	V69.84h7.34v36.26c5.88-7.1,14.75-11.63,24.67-11.63c17.65,0,32.01,14.36,32.01,32.01V154.81z"/>
<path class="st4" d="M314.07,154.94h-7.34V126.6c0-17.65,14.36-32.01,32.01-32.01v7.34c-13.6,0-24.67,11.07-24.67,24.67V154.94z"/>
<path class="st4" d="M129.54,94.47c-17.65,0-32.01,14.36-32.01,32.01v55.37h7.34v-34.99c5.88,7.1,14.75,11.63,24.67,11.63
	c17.65,0,32.01-14.36,32.01-32.01S147.18,94.47,129.54,94.47z M129.54,151.14c-13.6,0-24.67-11.06-24.67-24.67
	s11.06-24.67,24.67-24.67c13.6,0,24.67,11.06,24.67,24.67S143.14,151.14,129.54,151.14z"/>
<polygon class="st4" points="293.58,100.69 271.38,143.03 249.17,100.69 242.67,104.1 267.23,150.93 248.14,187.31 254.64,190.72 
	300.08,104.1 "/>
<g>
	<linearGradient id="SVGID_1_" gradientUnits="userSpaceOnUse" x1="280.6228" y1="26.9294" x2="320.728" y2="75.5555">
		<stop  offset="0" style="stop-color:#4EBFE6"/>
		<stop  offset="0.9955" style="stop-color:#3992CF"/>
	</linearGradient>
	<path class="st3" d="M331.33,45.02c0,12.92-9.78,23.58-22.32,24.98H309c-0.93,0.12-1.87,0.17-2.83,0.17
		c-0.48,0-0.95-0.01-1.43-0.05c-3.57-0.2-7.07-1.15-10.23-2.83c0.78-1,1.39-2.14,1.81-3.38c0.23-0.7,0.39-1.43,0.49-2.18l0.06-0.11
		c1.47,0.82,3.02,1.44,4.65,1.85c0.95,0.24,1.92,0.4,2.91,0.49c0.58,0.06,1.15,0.09,1.74,0.09c0.98,0,1.92-0.07,2.86-0.22
		c0.01,0.01,0.02,0.01,0.04,0c9.13-1.39,16.14-9.3,16.14-18.82c0-9.53-7.02-17.43-16.17-18.83c0,0,0,0-0.01,0
		c-0.93-0.13-1.88-0.21-2.85-0.21c-1.35,0-2.67,0.15-3.93,0.42c-8.63,1.81-15.11,9.47-15.11,18.62c0,3.12,0.77,6.22,2.23,8.94
		l0.1,0.21c1.16,1.84,1.77,3.94,1.77,6.12c0,5.35-3.67,9.84-8.63,11.1c-0.01,0.01-0.01,0.01-0.02,0c-0.91,0.24-1.86,0.37-2.83,0.37
		c-0.76,0-1.5-0.07-2.23-0.22c-5.26-1.04-9.24-5.69-9.24-11.24c0-3.07,1.25-5.95,3.32-8.05c1.13-1.15,2.51-2.08,4.06-2.67
		c0.01,0.1,0.04,0.21,0.05,0.31v0.01c0.37,1.92,0.93,3.79,1.73,5.58c-1.82,0.87-3.03,2.75-3.03,4.82c0,2.01,1.1,3.74,2.74,4.66
		c0.77,0.44,1.66,0.69,2.61,0.69c1.04,0,2.03-0.31,2.85-0.83c1.5-0.94,2.51-2.62,2.51-4.51c0-1.05-0.31-2.07-0.89-2.95l-0.29-0.56
		c-0.23-0.44-0.46-0.89-0.67-1.36V55.4c-0.84-1.87-1.46-3.83-1.84-5.85v-0.01c-0.27-1.49-0.4-3.01-0.4-4.53
		c0-12.41,9.04-22.76,20.88-24.79c0.01,0,0.01,0,0.02,0c1.38-0.24,2.8-0.37,4.25-0.37c0.97,0,1.91,0.05,2.84,0.17h0.01
		C321.57,21.44,331.33,32.12,331.33,45.02z"/>
</g>
</svg>
